<?xml version="1.0" encoding="UTF-8" standalone="no"?>
<!-- Created with Inkscape (http://www.inkscape.org/) -->
<svg
   xmlns:dc="http://purl.org/dc/elements/1.1/"
   xmlns:cc="http://web.resource.org/cc/"
   xmlns:rdf="http://www.w3.org/1999/02/22-rdf-syntax-ns#"
   xmlns:svg="http://www.w3.org/2000/svg"
   xmlns="http://www.w3.org/2000/svg"
   xmlns:sodipodi="http://sodipodi.sourceforge.net/DTD/sodipodi-0.dtd"
   xmlns:inkscape="http://www.inkscape.org/namespaces/inkscape"
   width="296.11066"
   height="195.77707"
   id="svg2"
   sodipodi:version="0.32"
   inkscape:version="0.45.1"
   sodipodi:docname="squeak-logo.svg"
   sodipodi:docbase="/Volumes/Ogeima/Users/dpollet/Desktop"
   version="1.0"
   inkscape:output_extension="org.inkscape.output.svg.inkscape">
  <defs
     id="defs4" />
  <sodipodi:namedview
     id="base"
     pagecolor="#ffffff"
     bordercolor="#666666"
     borderopacity="1.0"
     gridtolerance="10000"
     guidetolerance="10"
     objecttolerance="10"
     inkscape:pageopacity="0.0"
     inkscape:pageshadow="2"
     inkscape:zoom="1.7540668"
     inkscape:cx="134.72411"
     inkscape:cy="146.66565"
     inkscape:document-units="px"
     inkscape:current-layer="layer1"
     inkscape:window-width="758"
     inkscape:window-height="609"
     inkscape:window-x="0"
     inkscape:window-y="22"
     width="320px"
     height="250px"
     showborder="false" />
  <metadata
     id="metadata7">
    <rdf:RDF>
      <cc:Work
         rdf:about="">
        <dc:format>image/svg+xml</dc:format>
        <dc:type
           rdf:resource="http://purl.org/dc/dcmitype/StillImage" />
      </cc:Work>
    </rdf:RDF>
  </metadata>
  <g
     inkscape:label="Layer 1"
     inkscape:groupmode="layer"
     id="layer1"
     transform="translate(-10.55443,-31.140723)">
    <g
       id="g3193">
      <path
         transform="matrix(1,0,0,1.088889,-209.85499,-229.1159)"
         d="M 390.45459 385.13403 A 21.768707 15.549077 0 1 1  346.91718,385.13403 A 21.768707 15.549077 0 1 1  390.45459 385.13403 z"
         sodipodi:ry="15.549077"
         sodipodi:rx="21.768707"
         sodipodi:cy="385.13403"
         sodipodi:cx="368.68588"
         id="path14615"
         style="fill:#000000;fill-opacity:1;stroke:#000000;stroke-width:0;stroke-linecap:round;stroke-linejoin:round;stroke-miterlimit:4;stroke-dasharray:none;stroke-opacity:1"
         sodipodi:type="arc" />
      <path
         style="fill:none;fill-rule:evenodd;stroke:#000000;stroke-width:5;stroke-linecap:round;stroke-linejoin:round;stroke-miterlimit:4;stroke-dasharray:none;stroke-opacity:1"
         d="M 189.07587,181.26733 C 189.07587,181.26733 211.99901,175.33439 237.02735,175.33104 C 263.21747,175.32754 304.16508,187.98923 304.16508,187.98923"
         id="path5536"
         sodipodi:nodetypes="csc" />
      <path
         sodipodi:nodetypes="csc"
         id="path5538"
         d="M 191.21873,191.98162 C 190.20157,191.72733 216.36291,187.08426 243.48465,191.74526 C 266.86958,195.76407 295.59365,215.13209 295.59365,215.13209"
         style="fill:none;fill-rule:evenodd;stroke:#000000;stroke-width:5;stroke-linecap:round;stroke-linejoin:round;stroke-miterlimit:4;stroke-dasharray:none;stroke-opacity:1" />
      <path
         style="fill:none;fill-rule:evenodd;stroke:#000000;stroke-width:5;stroke-linecap:round;stroke-linejoin:round;stroke-miterlimit:4;stroke-dasharray:none;stroke-opacity:1"
         d="M 190.50444,207.69591 C 190.50444,207.69591 205.26719,205.87501 216.46383,206.03815 C 242.36911,206.41559 259.87936,224.4178 259.87936,224.4178"
         id="path5540"
         sodipodi:nodetypes="csc" />
      <path
         id="path1966"
         d="M 59.69837,141.22091 C 59.69837,141.22091 31.35088,38.80915 57.08633,34.56316 C 82.92711,30.2998 111.21615,92.94281 111.21615,92.94281"
         style="fill:none;fill-rule:evenodd;stroke:#000000;stroke-width:5;stroke-linecap:round;stroke-linejoin:round;stroke-miterlimit:4;stroke-dasharray:none;stroke-opacity:1" />
      <path
         sodipodi:nodetypes="csc"
         id="path7337"
         d="M 128.14364,179.82104 C 128.14364,179.82104 105.2205,173.8881 80.19216,173.88475 C 54.00204,173.88125 13.05443,186.54294 13.05443,186.54294"
         style="fill:none;fill-rule:evenodd;stroke:#000000;stroke-width:5;stroke-linecap:round;stroke-linejoin:round;stroke-miterlimit:4;stroke-dasharray:none;stroke-opacity:1" />
      <path
         style="fill:none;fill-rule:evenodd;stroke:#000000;stroke-width:5;stroke-linecap:round;stroke-linejoin:round;stroke-miterlimit:4;stroke-dasharray:none;stroke-opacity:1"
         d="M 126.00078,190.53533 C 127.01794,190.28104 100.8566,185.63797 73.73486,190.29897 C 50.34993,194.31778 21.62586,213.6858 21.62586,213.6858"
         id="path7339"
         sodipodi:nodetypes="csc" />
      <path
         sodipodi:nodetypes="csc"
         id="path7341"
         d="M 126.71507,206.24962 C 126.71507,206.24962 111.95232,204.42872 100.75568,204.59186 C 74.8504,204.9693 57.34015,222.97151 57.34015,222.97151"
         style="fill:none;fill-rule:evenodd;stroke:#000000;stroke-width:5;stroke-linecap:round;stroke-linejoin:round;stroke-miterlimit:4;stroke-dasharray:none;stroke-opacity:1" />
      <path
         sodipodi:type="arc"
         style="fill:#000000;fill-opacity:1;stroke:none;stroke-width:5;stroke-linecap:round;stroke-linejoin:round;stroke-miterlimit:4;stroke-dasharray:none;stroke-opacity:1"
         id="path7322"
         sodipodi:cx="357.5"
         sodipodi:cy="258.86218"
         sodipodi:rx="18.5"
         sodipodi:ry="22.5"
         d="M 376 258.86218 A 18.5 22.5 0 1 1  339,258.86218 A 18.5 22.5 0 1 1  376 258.86218 z"
         transform="matrix(0.993243,0,0,0.991667,-165.11976,-116.15152)" />
      <path
         transform="matrix(0.993243,0,0,0.991667,-230.49476,-119.02652)"
         d="M 376 258.86218 A 18.5 22.5 0 1 1  339,258.86218 A 18.5 22.5 0 1 1  376 258.86218 z"
         sodipodi:ry="22.5"
         sodipodi:rx="18.5"
         sodipodi:cy="258.86218"
         sodipodi:cx="357.5"
         id="path7320"
         style="fill:#000000;fill-opacity:1;stroke:none;stroke-width:5;stroke-linecap:round;stroke-linejoin:round;stroke-miterlimit:4;stroke-dasharray:none;stroke-opacity:1"
         sodipodi:type="arc" />
      <path
         style="fill:none;fill-opacity:1;fill-rule:evenodd;stroke:#000000;stroke-width:5;stroke-linecap:round;stroke-linejoin:round;stroke-miterlimit:4;stroke-dasharray:none;stroke-opacity:1"
         d="M 253.52044,140.50662 C 253.52044,140.50662 281.86793,38.09486 256.13248,33.84887 C 230.2917,29.58551 202.00266,92.22852 202.00266,92.22852"
         id="path5519" />
      <path
         transform="matrix(1.646204,0,0,1.178518,-470.2315,-164.51378)"
         d="M 367.85714 254.86218 A 2.8571429 6.7857141 0 1 1  362.14286,254.86218 A 2.8571429 6.7857141 0 1 1  367.85714 254.86218 z"
         sodipodi:ry="6.7857141"
         sodipodi:rx="2.8571429"
         sodipodi:cy="254.86218"
         sodipodi:cx="365"
         id="path5544"
         style="fill:#ffffff;fill-opacity:1;stroke:none;stroke-width:5;stroke-linecap:round;stroke-linejoin:round;stroke-miterlimit:4;stroke-dasharray:none;stroke-opacity:1"
         sodipodi:type="arc" />
      <path
         sodipodi:type="arc"
         style="fill:#ffffff;fill-opacity:1;stroke:none;stroke-width:5;stroke-linecap:round;stroke-linejoin:round;stroke-miterlimit:4;stroke-dasharray:none;stroke-opacity:1"
         id="path7318"
         sodipodi:cx="365"
         sodipodi:cy="254.86218"
         sodipodi:rx="2.8571429"
         sodipodi:ry="6.7857141"
         d="M 367.85714 254.86218 A 2.8571429 6.7857141 0 1 1  362.14286,254.86218 A 2.8571429 6.7857141 0 1 1  367.85714 254.86218 z"
         transform="matrix(1.646204,0,0,1.178518,-405.1328,-161.93228)" />
    </g>
  </g>
</svg>
